<?xml version="1.0" standalone="no"?>
<svg xmlns="http://www.w3.org/2000/svg" viewBox="0 0 116.1 29" width="116.1" height="29"><path fill="#bf3088" fill-rule="nonzero" d="M4.68 17.21L4.68 17.21Q3.38 17.21 2.33 16.56Q1.27 15.91 0.64 14.82Q0 13.73 0 12.38L0 12.38L0 4.78Q0 3.48 0.64 2.39Q1.27 1.30 2.34 0.65Q3.41 0 4.68 0L4.68 0Q6 0 7.07 0.64Q8.14 1.27 8.76 2.35Q9.38 3.43 9.38 4.78L9.38 4.78L9.38 5.88Q9.38 5.98 9.26 5.98L9.26 5.98L6.58 5.98Q6.48 5.98 6.48 5.88L6.48 5.88L6.48 4.97Q6.48 4.06 5.96 3.46Q5.45 2.86 4.68 2.86L4.68 2.86Q3.98 2.86 3.44 3.43Q2.90 4.01 2.90 4.78L2.90 4.78L2.90 12.38Q2.90 13.18 3.43 13.74Q3.96 14.30 4.68 14.30L4.68 14.30Q5.45 14.30 5.96 13.75Q6.48 13.20 6.48 12.38L6.48 12.38L6.48 11.21L4.80 11.21Q4.68 11.21 4.68 11.09L4.68 11.09L4.68 8.40Q4.68 8.28 4.80 8.28L4.80 8.28L9.29 8.28Q9.38 8.28 9.38 8.40L9.38 8.40L9.38 12.38Q9.38 13.73 8.75 14.82Q8.11 15.91 7.06 16.56Q6 17.21 4.68 17.21ZM13.92 16.97L11.21 16.97Q11.09 16.97 11.09 16.85L11.09 16.85L11.11 0.36Q11.11 0.26 11.21 0.26L11.21 0.26L13.90 0.26Q13.99 0.26 13.99 0.36L13.99 0.36L14.02 16.85Q14.02 16.97 13.92 16.97L13.92 16.97ZM21.24 16.97L18.53 16.97Q18.43 16.97 18.43 16.85L18.43 16.85L18.43 3.17L15.31 3.17Q15.19 3.17 15.19 3.05L15.19 3.05L15.22 0.36Q15.22 0.26 15.31 0.26L15.31 0.26L24.43 0.26Q24.55 0.26 24.55 0.36L24.55 0.36L24.55 3.05Q24.55 3.17 24.46 3.17L24.46 3.17L21.31 3.17L21.34 16.85Q21.34 16.97 21.24 16.97L21.24 16.97ZM32.09 16.97L29.40 16.97Q29.28 16.97 29.28 16.85L29.28 16.85L29.33 0.36Q29.33 0.26 29.42 0.26L29.42 0.26L34.03 0.26Q36.24 0.26 37.52 1.61Q38.81 2.95 38.81 5.26L38.81 5.26Q38.81 6.96 38.14 8.21Q37.46 9.46 36.38 10.13Q35.30 10.80 34.03 10.80L34.03 10.80L32.21 10.80L32.21 16.85Q32.21 16.97 32.09 16.97L32.09 16.97ZM32.21 3.14L32.21 7.90L34.03 7.90Q34.80 7.90 35.36 7.16Q35.93 6.43 35.93 5.26L35.93 5.26Q35.93 4.32 35.42 3.72Q34.92 3.12 34.03 3.12L34.03 3.12L32.21 3.14ZM43.08 16.97L40.37 16.97Q40.25 16.97 40.25 16.85L40.25 16.85L40.27 0.36Q40.27 0.26 40.37 0.26L40.37 0.26L43.06 0.26Q43.15 0.26 43.15 0.36L43.15 0.36L43.18 16.85Q43.18 16.97 43.08 16.97L43.08 16.97ZM53.38 16.97L45.62 16.97Q45.53 16.97 45.53 16.85L45.53 16.85L45.55 0.38Q45.55 0.26 45.67 0.26L45.67 0.26L48.34 0.26Q48.46 0.26 48.46 0.38L48.46 0.38L48.43 14.02L53.38 14.02Q53.50 14.02 53.50 14.14L53.50 14.14L53.50 16.85Q53.50 16.97 53.38 16.97L53.38 16.97ZM62.90 16.97L55.15 16.97Q55.06 16.97 55.06 16.85L55.06 16.85L55.08 0.38Q55.08 0.26 55.20 0.26L55.20 0.26L57.86 0.26Q57.98 0.26 57.98 0.38L57.98 0.38L57.96 14.02L62.90 14.02Q63.02 14.02 63.02 14.14L63.02 14.14L63.02 16.85Q63.02 16.97 62.90 16.97L62.90 16.97ZM68.06 17.21L68.06 17.21Q66.77 17.21 65.70 16.55Q64.63 15.89 64.00 14.80Q63.36 13.70 63.36 12.38L63.36 12.38L63.36 11.28Q63.36 11.16 63.48 11.16L63.48 11.16L66.17 11.16Q66.26 11.16 66.26 11.28L66.26 11.28L66.26 12.38Q66.26 13.18 66.79 13.74Q67.32 14.30 68.06 14.30L68.06 14.30Q68.81 14.30 69.34 13.73Q69.86 13.15 69.86 12.38L69.86 12.38Q69.86 11.50 68.71 10.85L68.71 10.85Q68.33 10.63 67.51 10.18Q66.70 9.72 65.98 9.31L65.98 9.31Q64.66 8.54 64.02 7.38Q63.38 6.22 63.38 4.75L63.38 4.75Q63.38 3.41 64.03 2.34Q64.68 1.27 65.75 0.65Q66.82 0.02 68.06 0.02L68.06 0.02Q69.34 0.02 70.40 0.66Q71.47 1.30 72.11 2.36Q72.74 3.43 72.74 4.75L72.74 4.75L72.74 6.72Q72.74 6.82 72.65 6.82L72.65 6.82L69.96 6.82Q69.86 6.82 69.86 6.72L69.86 6.72L69.84 4.75Q69.84 3.91 69.31 3.38Q68.78 2.86 68.06 2.86L68.06 2.86Q67.32 2.86 66.79 3.42Q66.26 3.98 66.26 4.75L66.26 4.75Q66.26 5.54 66.60 6.07Q66.94 6.60 67.82 7.08L67.82 7.08Q67.94 7.15 68.29 7.33Q68.64 7.51 69.05 7.74Q69.46 7.97 69.78 8.14Q70.10 8.30 70.18 8.35L70.18 8.35Q71.38 9.02 72.07 10.00Q72.77 10.97 72.77 12.38L72.77 12.38Q72.77 13.75 72.13 14.84Q71.50 15.94 70.43 16.57Q69.36 17.21 68.06 17.21Z" transform="translate(0, 5.897)"></path><line x1="81.768" y1="2%" x2="81.768" y2="98%" stroke="#bf3088" stroke-linecap="round"></line><g fill="#000000" color="#000000" transform="translate(90.768 0) scale(0.4441042)"><svg width="57.0" height="65.3" x="0.0" y="0.0" viewBox="0 0 57 65.3"><path d="M12.2,46.4c-2.7,1.2-4.7,4-4.7,7.2c0,4.4,3.6,7.9,7.9,7.9c4.4,0,7.9-3.6,7.9-7.9c0-3.2-1.9-6-4.7-7.2v-13  c4.3,3.7,10.4,6.2,17,6.4c1.2,2.8,4,4.7,7.2,4.7c4.4,0,7.9-3.6,7.9-7.9c0-4.4-3.6-7.9-7.9-7.9c-3.2,0-5.9,1.9-7.2,4.6  c-9.2-0.4-17.1-6.2-17.1-12.9v-1.1c2.7-1.2,4.7-4,4.7-7.2c0-4.4-3.6-7.9-7.9-7.9c-4.4,0-7.9,3.6-7.9,7.9c0,3.2,1.9,6,4.7,7.2v5.1  l0-4 M11.6,12.1c0-2.2,1.8-3.9,3.9-3.9c2.2,0,3.9,1.8,3.9,3.9c0,2.2-1.8,3.9-3.9,3.9C13.3,16,11.6,14.2,11.6,12.1z M19.4,53.6  c0,2.2-1.8,3.9-3.9,3.9c-2.2,0-3.9-1.8-3.9-3.9c0-2.2,1.8-3.9,3.9-3.9C17.6,49.7,19.4,51.4,19.4,53.6z M43,40.5  c-2.2,0-3.9-1.8-3.9-3.9c0-2.2,1.8-3.9,3.9-3.9c2.2,0,3.9,1.8,3.9,3.9C46.9,38.7,45.1,40.5,43,40.5z"></path></svg></g></svg>